2014051_C4_04_grf
version=1
nRows=30
nColumns=19
inDegrees=no
endheader
time	ground_force_1_vx	ground_force_1_vy	ground_force_1_vz	ground_force_1_px	ground_force_1_py	ground_force_1_pz	ground_force_1_mx	ground_force_1_my	ground_force_1_mz	ground_force_2_vx	ground_force_2_vy	ground_force_2_vz	ground_force_2_px	ground_force_2_py	ground_force_2_pz	ground_force_2_mx	ground_force_2_my	ground_force_2_mz
      0.49700000	      0.00000000	      0.00000000	      0.00000000	      0.00000000	      0.00000000	      0.00000000	      0.00000000	      0.00000000	      0.00000000	     -6.07591006	    694.70212609	    -17.40474999	     -0.83006849	      0.00000000	      0.33208600	      0.00000000	      8.50614587	     -0.00000000
      0.49800000	      0.00000000	      0.00000000	      0.00000000	      0.00000000	      0.00000000	      0.00000000	      0.00000000	      0.00000000	      0.00000000	     -5.67899877	    695.54729015	    -17.58578978	     -0.82978889	      0.00000000	      0.33221466	      0.00000000	      8.51418303	      0.00000000
      0.49900000	      0.00000000	      0.00000000	      0.00000000	      0.00000000	      0.00000000	      0.00000000	      0.00000000	      0.00000000	      0.00000000	     -5.28581068	    696.41102850	    -17.77078770	     -0.82950599	      0.00000000	      0.33234285	     -0.00000000	      8.52189074	      0.00000000
      0.50000000	      0.00000000	      0.00000000	      0.00000000	      0.00000000	      0.00000000	      0.00000000	      0.00000000	      0.00000000	      0.00000000	     -4.89563076	    697.28938490	    -17.95898192	     -0.82922035	      0.00000000	      0.33247072	      0.00000000	      8.52931644	      0.00000000
      0.50100000	      0.00000000	      0.00000000	      0.00000000	      0.00000000	      0.00000000	      0.00000000	      0.00000000	      0.00000000	      0.00000000	     -4.50923806	    698.18557799	    -18.15120690	     -0.82893120	      0.00000000	      0.33259826	     -0.00000000	      8.53636752	      0.00000000
      0.50200000	      0.00000000	      0.00000000	      0.00000000	      0.00000000	      0.00000000	      0.00000000	      0.00000000	      0.00000000	      0.00000000	     -4.12589312	    699.09571856	    -18.34668405	     -0.82863915	      0.00000000	      0.33272559	      0.00000000	      8.54310104	      0.00000000
      0.50300000	      0.00000000	      0.00000000	      0.00000000	      0.00000000	      0.00000000	      0.00000000	      0.00000000	      0.00000000	      0.00000000	     -3.74637579	    700.02272353	    -18.54625437	     -0.82834340	      0.00000000	      0.33285272	      0.00000000	      8.54941855	      0.00000000
      0.50400000	      0.00000000	      0.00000000	      0.00000000	      0.00000000	      0.00000000	      0.00000000	      0.00000000	      0.00000000	      0.00000000	     -3.36992834	    700.96287131	    -18.74911413	     -0.82804459	      0.00000000	      0.33297975	      0.00000000	      8.55538862	      0.00000000
      0.50500000	      0.00000000	      0.00000000	      0.00000000	      0.00000000	      0.00000000	      0.00000000	      0.00000000	      0.00000000	      0.00000000	     -2.99731595	    701.91874355	    -18.95609684	     -0.82774186	      0.00000000	      0.33310673	      0.00000000	      8.56090695	      0.00000000
      0.50600000	      0.00000000	      0.00000000	      0.00000000	      0.00000000	      0.00000000	      0.00000000	      0.00000000	      0.00000000	      0.00000000	     -2.62776413	    702.88675278	    -19.16637644	     -0.82743591	      0.00000000	      0.33323374	      0.00000000	      8.56605022	      0.00000000
      0.50700000	      0.00000000	      0.00000000	      0.00000000	      0.00000000	      0.00000000	      0.00000000	      0.00000000	      0.00000000	      0.00000000	     -2.26202654	    703.86931300	    -19.38077901	     -0.82712583	      0.00000000	      0.33336085	      0.00000000	      8.57070575	      0.00000000
      0.50800000	      0.00000000	      0.00000000	      0.00000000	      0.00000000	      0.00000000	      0.00000000	      0.00000000	      0.00000000	      0.00000000	     -1.89932913	    704.86287028	    -19.59848218	     -0.82681236	      0.00000000	      0.33348813	      0.00000000	      8.57495792	      0.00000000
      0.50900000	      0.00000000	      0.00000000	      0.00000000	      0.00000000	      0.00000000	      0.00000000	      0.00000000	      0.00000000	      0.00000000	     -1.54041132	    705.86963743	    -19.82031204	     -0.82649457	      0.00000000	      0.33361570	      0.00000000	      8.57869042	      0.00000000
      0.51000000	      0.00000000	      0.00000000	      0.00000000	      0.00000000	      0.00000000	      0.00000000	      0.00000000	      0.00000000	      0.00000000	     -1.18449749	    706.88646287	    -20.04544064	     -0.82617324	      0.00000000	      0.33374355	      0.00000000	      8.58199575	      0.00000000
      0.51100000	      0.00000000	      0.00000000	      0.00000000	      0.00000000	      0.00000000	      0.00000000	      0.00000000	      0.00000000	      0.00000000	     -0.83230721	    707.91522413	    -20.27467918	     -0.82584741	      0.00000000	      0.33387185	      0.00000000	      8.58475475	      0.00000000
      0.51200000	      0.00000000	      0.00000000	      0.00000000	      0.00000000	      0.00000000	      0.00000000	      0.00000000	      0.00000000	      0.00000000	     -0.48306311	    708.95303786	    -20.50719038	     -0.82551789	      0.00000000	      0.33400057	      0.00000000	      8.58706575	      0.00000000
      0.51300000	      0.00000000	      0.00000000	      0.00000000	      0.00000000	      0.00000000	      0.00000000	      0.00000000	      0.00000000	      0.00000000	     -0.13745203	    710.00154689	    -20.74377239	     -0.82518368	      0.00000000	      0.33412989	      0.00000000	      8.58880048	      0.00000000
      0.51400000	      0.00000000	      0.00000000	      0.00000000	      0.00000000	      0.00000000	      0.00000000	      0.00000000	      0.00000000	      0.00000000	      0.20529727	    711.05803549	    -20.98359168	     -0.82484566	      0.00000000	      0.33425976	      0.00000000	      8.59006025	      0.00000000
      0.51500000	      0.00000000	      0.00000000	      0.00000000	      0.00000000	      0.00000000	      0.00000000	      0.00000000	      0.00000000	      0.00000000	      0.54453222	    712.12377772	    -21.22743428	     -0.82450279	      0.00000000	      0.33439041	      0.00000000	      8.59070613	      0.00000000
      0.51600000	      0.00000000	      0.00000000	      0.00000000	      0.00000000	      0.00000000	      0.00000000	      0.00000000	      0.00000000	      0.00000000	      0.88101253	    713.19629252	    -21.47447132	     -0.82415597	      0.00000000	      0.33452179	      0.00000000	      8.59084349	      0.00000000
      0.51700000	      0.00000000	      0.00000000	      0.00000000	      0.00000000	      0.00000000	      0.00000000	      0.00000000	      0.00000000	      0.00000000	      1.21413160	    714.27655220	    -21.72546554	     -0.82380414	      0.00000000	      0.33465414	      0.00000000	      8.59032302	      0.00000000
      0.51800000	      0.00000000	      0.00000000	      0.00000000	      0.00000000	      0.00000000	      0.00000000	      0.00000000	      0.00000000	      0.00000000	      1.54463132	    715.36231041	    -21.97959274	     -0.82344825	      0.00000000	      0.33478735	      0.00000000	      8.58925807	      0.00000000
      0.51900000	      0.00000000	      0.00000000	      0.00000000	      0.00000000	      0.00000000	      0.00000000	      0.00000000	      0.00000000	      0.00000000	      1.87194365	    716.45417064	    -22.23758958	     -0.82308720	      0.00000000	      0.33492174	      0.00000000	      8.58748821	      0.00000000
      0.52000000	      0.00000000	      0.00000000	      0.00000000	      0.00000000	      0.00000000	      0.00000000	      0.00000000	      0.00000000	      0.00000000	      2.19677598	    717.55025536	    -22.49864116	     -0.82272198	      0.00000000	      0.33505716	      0.00000000	      8.58513576	      0.00000000
      0.52100000	      0.00000000	      0.00000000	      0.00000000	      0.00000000	      0.00000000	      0.00000000	      0.00000000	      0.00000000	      0.00000000	      2.51859811	    718.65073219	    -22.76344970	     -0.82235150	      0.00000000	      0.33519394	      0.00000000	      8.58202872	      0.00000000
      0.52200000	      0.00000000	      0.00000000	      0.00000000	      0.00000000	      0.00000000	      0.00000000	      0.00000000	      0.00000000	      0.00000000	      2.83808494	    719.75415945	    -23.03121053	     -0.82197677	      0.00000000	      0.33533189	      0.00000000	      8.57829962	      0.00000000
      0.52300000	      0.00000000	      0.00000000	      0.00000000	      0.00000000	      0.00000000	      0.00000000	      0.00000000	      0.00000000	      0.00000000	      3.15474172	    720.86043656	    -23.30258861	     -0.82159669	      0.00000000	      0.33547138	      0.00000000	      8.57376662	      0.00000000
      0.52400000	      0.00000000	      0.00000000	      0.00000000	      0.00000000	      0.00000000	      0.00000000	      0.00000000	      0.00000000	      0.00000000	      3.46920453	    721.96832299	    -23.57679605	     -0.82121230	      0.00000000	      0.33561221	      0.00000000	      8.56856976	      0.00000000
      0.52500000	      0.00000000	      0.00000000	      0.00000000	      0.00000000	      0.00000000	      0.00000000	      0.00000000	      0.00000000	      0.00000000	      3.78101203	    723.07755053	    -23.85445498	     -0.82082253	      0.00000000	      0.33575474	      0.00000000	      8.56251780	      0.00000000
      0.52600000	      0.00000000	      0.00000000	      0.00000000	      0.00000000	      0.00000000	      0.00000000	      0.00000000	      0.00000000	      0.00000000	      4.09076549	    724.18711334	    -24.13480543	     -0.82042843	      0.00000000	      0.33589873	      0.00000000	      8.55576053	      0.00000000
